<svg id="icons" enable-background="new 0 0 64 64" height="512" viewBox="0 0 64 64" width="512" xmlns="http://www.w3.org/2000/svg"><path d="m56 39.997h7c.553 0 1-.447 1-1s-.447-1-1-1h-8c-.553 0-1 .447-1 1v.999h-1.42l-3.58-6.265v-5.732c0-.553-.447-1-1-1h-3c-1.989 0-2.998 1.346-2.998 4v7.999h-17.499c-.002 0-.003-.001-.005-.001-1.93 0-3.5 1.57-3.5 3.5s1.57 3.5 3.5 3.5h7.86c-.218.456-.351.961-.351 1.499 0 .979.407 1.864 1.059 2.5-.651.636-1.059 1.521-1.059 2.5s.407 1.864 1.059 2.5c-.651.636-1.059 1.521-1.059 2.5 0 1.93 1.57 3.5 3.5 3.5.004 0 .006-.002.01-.002h2.968c.005 0 .01.003.015.003.01 0 .02-.003.029-.003h10.471.001c.002 0 .004-.001.006-.001.148-.001.286-.039.413-.098.009-.005.019-.003.027-.007l3.789-1.895h.764v.999c0 .553.447 1 1 1h8c.553 0 1-.447 1-1s-.447-1-1-1h-7zm-21.992 7.499c0-.824.668-1.494 1.49-1.499h.005c.002 0 .003.001.005.001h2.992c.004 0 .006-.002.01-.002.822.006 1.49.675 1.49 1.499 0 .827-.673 1.5-1.5 1.5-.004 0-.006.002-.01.002h-2.978c-.002 0-.003-.001-.005-.001-.826 0-1.499-.673-1.499-1.5zm0 5c0-.826.671-1.498 1.497-1.5.001 0 .002.001.003.001h2.992c.001 0 .002-.001.003-.001.826.002 1.497.674 1.497 1.5 0 .827-.673 1.5-1.5 1.5h-2.992c-.827 0-1.5-.673-1.5-1.5zm0 5c0-.827.673-1.5 1.5-1.5h2.987c.002 0 .003.001.005.001.827 0 1.5.673 1.5 1.5 0 .817-.657 1.481-1.471 1.497h-3.021c-.002 0-.004.001-.007.001-.823-.003-1.493-.674-1.493-1.499zm18.992-.502c-.012 0-.021.006-.032.007-.063.002-.124.023-.187.037-.068.016-.137.024-.199.054-.01.004-.02.003-.029.008l-3.789 1.895h-7.114c.218-.456.35-.959.35-1.497 0-.979-.407-1.864-1.059-2.501.651-.636 1.059-1.52 1.059-2.5s-.407-1.864-1.059-2.5c.652-.638 1.059-1.522 1.059-2.502 0-1.93-1.57-3.5-3.5-3.5-.005 0-.01.003-.015.003h-2.968c-.004 0-.006-.002-.01-.002-.003 0-.006.001-.01.001h-11c-.827 0-1.5-.673-1.5-1.5 0-.826.671-1.498 1.497-1.5.001 0 .002.001.003.001h18.504c.553 0 1-.447 1-1v-8.999c0-2 .53-2 .998-2h2v4.998c0 .021.01.037.012.057.004.066.021.13.039.195s.033.13.063.189c.01.018.009.037.019.055l4 6.999c.043.075.097.142.154.201.003.004.005.008.009.012.082.081.179.141.281.189.025.012.052.021.079.032.11.04.225.068.343.069h.002 2v14.998h-1z"/><path d="m21.998 25.001h17.499c.002 0 .003.001.005.001 1.93 0 3.5-1.57 3.5-3.5s-1.57-3.5-3.5-3.5h-7.86c.218-.456.351-.961.351-1.499 0-.979-.407-1.864-1.059-2.5.651-.636 1.059-1.521 1.059-2.5s-.407-1.864-1.059-2.5c.651-.636 1.059-1.521 1.059-2.5 0-1.93-1.57-3.5-3.5-3.5-.004 0-.006.002-.01.002h-13.483c-.012 0-.021.006-.032.007-.063.002-.124.023-.187.037-.068.016-.137.024-.199.054-.01.004-.02.003-.029.008l-3.789 1.895h-.764v-1c0-.553-.447-1-1-1h-8c-.553 0-1 .447-1 1s.447 1 1 1h7v18.996h-7c-.553 0-1 .447-1 1s.447 1 1 1h8c.553 0 1-.447 1-1v-.999h1.42l3.58 6.265v5.732c0 .553.447 1 1 1h3c1.989 0 2.998-1.346 2.998-4zm-11.998-17.996h1 .001c.002 0 .004-.001.006-.001.148-.001.286-.039.413-.098.009-.005.019-.002.027-.007l3.789-1.895h13.256c.002 0 .004-.001.007-.001.823.003 1.493.674 1.493 1.499 0 .827-.673 1.5-1.5 1.5-.553 0-1 .447-1 1s.447 1 1 1c.827 0 1.5.673 1.5 1.5s-.673 1.5-1.5 1.5c-.553 0-1 .447-1 1s.447 1 1 1c.827 0 1.5.673 1.5 1.5 0 .824-.668 1.493-1.49 1.499h-.01c-.553 0-1 .447-1 1v.001c0 .553.447 1 1 1 .003 0 .006-.001.01-.001h11c.827 0 1.5.673 1.5 1.5 0 .826-.671 1.498-1.497 1.5-.001 0-.002-.001-.003-.001h-18.504c-.553 0-1 .447-1 1v9c0 2-.53 2-.998 2h-2v-4.998c0-.021-.01-.037-.012-.057-.004-.066-.021-.13-.039-.195-.018-.066-.033-.13-.063-.19-.009-.017-.008-.036-.018-.054l-4-6.999c-.021-.037-.056-.06-.081-.093-.043-.057-.084-.11-.137-.157-.049-.042-.102-.073-.157-.105-.055-.031-.106-.062-.167-.083-.068-.023-.138-.033-.209-.042-.041-.005-.076-.023-.117-.023h-2z"/></svg>