<?xml version="1.0"?>
<svg xmlns="http://www.w3.org/2000/svg" xmlns:xlink="http://www.w3.org/1999/xlink" xmlns:svgjs="http://svgjs.com/svgjs" version="1.1" width="512" height="512" x="0" y="0" viewBox="0 0 512 512" style="enable-background:new 0 0 512 512" xml:space="preserve" class=""><g><linearGradient xmlns="http://www.w3.org/2000/svg" id="a" gradientTransform="matrix(1 0 0 -1 0 -16402)" gradientUnits="userSpaceOnUse" x1="0" x2="512" y1="-16658" y2="-16658"><stop stop-opacity="1" stop-color="#f26830" offset="0"/><stop stop-opacity="1" stop-color="#f3b34c" offset="1"/></linearGradient><path xmlns="http://www.w3.org/2000/svg" d="m512 256c0 141.386719-114.613281 256-256 256s-256-114.613281-256-256 114.613281-256 256-256 256 114.613281 256 256zm0 0" fill="url(#a)" data-original="url(#a)" style="" class=""/><g xmlns="http://www.w3.org/2000/svg" fill="#fff"><path d="m404.855469 186.804688c0-20.457032-6.328125-44.203126-16.925781-63.523438-13.191407-24.042969-30.789063-37.28125-49.558594-37.28125-18.765625 0-36.363282 13.238281-49.554688 37.277344-10.597656 19.324218-16.925781 43.070312-16.925781 63.527344 0 31.5 22.027344 57.933593 51.480469 64.757812v173.4375c0 8.285156 6.71875 15 15 15 8.285156 0 15-6.714844 15-15v-173.4375c29.457031-6.824219 51.484375-33.257812 51.484375-64.757812zm-66.484375 36.484374c-20.113282 0-36.480469-16.367187-36.480469-36.484374 0-31.101563 20.457031-70.804688 36.480469-70.804688 16.027344 0 36.484375 39.703125 36.484375 70.804688 0 20.117187-16.367188 36.484374-36.484375 36.484374zm0 0" fill="#ffffff" data-original="#ffffff" style="" class=""/><path d="m225.109375 86c-8.285156 0-15 6.714844-15 15v85.804688c0 20.117187-16.367187 36.484374-36.480469 36.484374-20.117187 0-36.484375-16.367187-36.484375-36.484374v-85.804688c0-8.285156-6.714843-15-15-15-8.285156 0-15 6.714844-15 15v85.804688c0 31.5 22.027344 57.933593 51.484375 64.757812v173.4375c0 8.285156 6.714844 15 15 15 8.28125 0 15-6.714844 15-15v-173.4375c29.453125-6.824219 51.480469-33.257812 51.480469-64.757812v-85.804688c0-8.285156-6.714844-15-15-15zm0 0" fill="#ffffff" data-original="#ffffff" style="" class=""/><path d="m173.628906 199.746094c8.28125 0 15-6.714844 15-15v-83.746094c0-8.285156-6.71875-15-15-15-8.285156 0-15 6.714844-15 15v83.746094c0 8.285156 6.714844 15 15 15zm0 0" fill="#ffffff" data-original="#ffffff" style="" class=""/></g></g></svg>
